<svg xmlns="http://www.w3.org/2000/svg" viewBox="0 0 50 50" id="database-cache"><path fill="#798ffe" d="M40.978 34.834v6.927c-.007 1.743-1.643 3.484-4.911 4.815-6.578 2.677-17.279 2.677-23.9 0-3.331-1.348-4.995-3.117-4.988-4.883v-6.926c-.007 1.766 1.656 3.535 4.989 4.882 6.62 2.678 17.321 2.678 23.899 0 3.268-1.33 4.904-3.071 4.91-4.815z"></path><ellipse cx="24.078" cy="34.8" fill="#8ca1fd" rx="6.857" ry="16.899" transform="rotate(-89.909 24.078 34.8)"></ellipse><path fill="#b7c5fd" d="M40.557 33.326c.406 1.9-1.166 3.856-4.738 5.31-6.442 2.622-16.922 2.623-23.405 0-3.615-1.462-5.22-3.43-4.82-5.34-1.206 2.215.31 4.629 4.573 6.353 6.621 2.678 17.322 2.678 23.9 0 4.217-1.716 5.7-4.116 4.49-6.323z"></path><path fill="#3955d1" d="M39.655 25.619v6.384c-.007 1.607-1.514 3.212-4.527 4.438-6.062 2.468-15.926 2.468-22.028 0-3.071-1.242-4.605-2.873-4.599-4.5v-6.385c-.006 1.628 1.528 3.259 4.599 4.5 6.102 2.469 15.966 2.469 22.028 0 3.013-1.226 4.52-2.83 4.527-4.437z"></path><path fill="#798ffe" d="M40.978 21.363v6.926c-.007 1.744-1.643 3.485-4.911 4.815-6.578 2.678-17.279 2.678-23.9 0-3.331-1.347-4.995-3.116-4.988-4.882v-6.927c-.007 1.766 1.656 3.535 4.989 4.883 6.62 2.678 17.321 2.678 23.899 0 3.268-1.33 4.904-3.072 4.91-4.815z"></path><ellipse cx="24.078" cy="21.329" fill="#8ca1fd" rx="6.857" ry="16.899" transform="rotate(-89.909 24.078 21.329)"></ellipse><path fill="#b7c5fd" d="M40.557 19.855c.406 1.9-1.166 3.855-4.738 5.31-6.442 2.622-16.922 2.623-23.405 0-3.615-1.462-5.22-3.43-4.82-5.34-1.206 2.215.31 4.629 4.573 6.353 6.621 2.678 17.322 2.678 23.9 0 4.217-1.717 5.7-4.116 4.49-6.323z"></path><path fill="#3955d1" d="M39.655 12.147v6.384c-.007 1.607-1.514 3.212-4.527 4.439-6.062 2.468-15.926 2.468-22.028 0-3.071-1.243-4.605-2.873-4.599-4.5v-6.385c-.006 1.628 1.528 3.258 4.599 4.5 6.102 2.469 15.966 2.469 22.028 0 3.013-1.226 4.52-2.83 4.527-4.438z"></path><path fill="#798ffe" d="M40.978 7.892v6.926c-.007 1.743-1.643 3.484-4.911 4.815-6.578 2.678-17.279 2.678-23.9 0-3.331-1.348-4.995-3.117-4.988-4.883V7.824c-.007 1.766 1.656 3.535 4.988 4.883 6.621 2.677 17.322 2.677 23.9 0 3.268-1.33 4.904-3.072 4.91-4.815z"></path><ellipse cx="24.078" cy="7.858" fill="#8ca1fd" rx="6.857" ry="16.899" transform="rotate(-89.909 24.078 7.858)"></ellipse><path fill="#b7c5fd" d="M40.557 6.383c.406 1.901-1.166 3.856-4.738 5.31-6.442 2.623-16.922 2.623-23.405 0-3.615-1.462-5.22-3.43-4.82-5.34-1.206 2.216.31 4.63 4.573 6.354 6.621 2.678 17.322 2.677 23.9 0 4.217-1.717 5.7-4.116 4.49-6.324z"></path><path fill="#2e4277" d="M42.821 31.637v13.989c-.003.862-.812 1.723-2.428 2.38-3.253 1.325-8.545 1.325-11.818 0-1.648-.666-2.471-1.54-2.467-2.414V31.604c-.004.873.819 1.748 2.467 2.415 3.273 1.324 8.565 1.324 11.818 0 1.616-.658 2.425-1.52 2.428-2.382z"></path><path fill="#1b2a4f" d="M42.821 31.637c-.003.863-.812 1.724-2.428 2.381-1.56.636-3.589.963-5.64.989v13.988c2.051-.026 4.08-.353 5.64-.988 1.616-.658 2.425-1.519 2.428-2.381V31.637z"></path><ellipse cx="34.464" cy="31.621" fill="#2e4277" rx="3.391" ry="8.357" transform="rotate(-89.909 34.464 31.62)"></ellipse><path fill="#384e85" d="M42.613 30.892c.201.94-.576 1.906-2.343 2.625-3.185 1.297-8.367 1.298-11.574 0-1.787-.722-2.58-1.696-2.384-2.64-.596 1.095.154 2.289 2.263 3.142 3.273 1.324 8.565 1.324 11.818 0 2.085-.85 2.82-2.036 2.22-3.127z"></path><path fill="#fff" d="m33.825 37.944-1.609 4.157h1.964l-1.444 3.549 4.237-4.968h-1.858l2.419-2.689z"></path></svg>