<svg xmlns="http://www.w3.org/2000/svg" width="128" height="128" fill-rule="evenodd" clip-rule="evenodd" image-rendering="optimizeQuality" shape-rendering="geometricPrecision" text-rendering="geometricPrecision" viewBox="0 0 1333.33 1333.33" id="adobe-illustrator-logo"><path fill="#300" d="M386.8 244.16l559.72 0c84.86,0 153.47,68.61 153.47,153.47l0 538.06c0,84.86 -68.61,153.47 -153.47,153.47l-559.72 0c-84.86,0 -153.47,-68.61 -153.47,-153.47l0 -538.06c0,-84.86 68.61,-153.47 153.47,-153.47z"></path><path fill="#ff9a00" d="M653.3 751.16l-134.33 0-27.44 84.86c-.72 3.25-3.61 5.42-6.86 5.06l-67.89 0c-3.97 0-5.06-2.17-3.97-6.5l116.28-334.75c1.08-3.61 2.17-7.59 3.61-11.92 1.44-7.58 2.17-15.53 2.17-23.47-.36-1.81 1.09-3.61 2.89-3.97.36 0 .72 0 1.09 0l92.44 0c2.89 0 4.33 1.08 4.7 2.89l131.8 371.94c1.09 3.97 0 5.78-3.61 5.78l-75.47 0c-2.53.36-5.06-1.44-5.78-3.97l-29.61-85.94zm-113.39-73.3l91.72 0c-2.17-7.59-5.06-16.61-8.3-26-3.25-9.75-6.5-20.22-9.75-31.06-3.61-11.19-6.86-22.03-10.47-33.22-3.61-11.2-6.86-21.67-9.75-32.14-2.89-10.11-5.42-19.5-7.94-28.17l-.72 0c-3.25 15.53-7.22 31.06-12.28 46.59-5.42 17.33-10.83 35.39-16.61 53.44-5.06 18.42-10.47 35.39-15.89 50.56l0 0zM846.5 522.22c-11.92.36-23.47-4.33-32.14-12.64-8.31-9.03-12.64-20.94-12.28-33.22-.36-12.28 4.33-23.83 13-32.14 8.67-8.31 20.22-12.64 32.14-12.64 14.08 0 24.92 4.33 32.86 12.64 7.94 8.67 12.28 20.22 11.92 32.14.36 12.28-3.97 24.19-12.64 33.22-8.31 8.67-20.59 13.36-32.87 12.64zm-40.44 313.44l0-278.06c0-3.61 1.44-5.06 4.7-5.06l71.5 0c3.25 0 4.69 1.81 4.69 5.06l0 278.06c0 3.97-1.44 5.78-4.69 5.78l-70.78 0c-3.61 0-5.42-2.17-5.42-5.78z"></path></svg>