<svg xmlns="http://www.w3.org/2000/svg" viewBox="0 0 48 48" id="search-engine"><path fill-rule="evenodd" d="m35.75 39.99 3.14 3.14a2.982 2.982 0 0 0 4.21 0l.03-.03a2.982 2.982 0 0 0 0-4.21l-3.14-3.14c.64-1.28 1-2.72 1-4.25 0-5.24-4.26-9.5-9.5-9.5s-9.5 4.26-9.5 9.5 4.26 9.5 9.5 9.5c1.53 0 2.97-.36 4.25-1Zm3.13-2.52c-.42.52-.89.99-1.41 1.41l2.84 2.84c.38.38 1 .38 1.38 0l.03-.03c.38-.38.38-1 0-1.38l-2.84-2.84Zm-14.89 2.5c-.94.05-1.89.03-2.83-.07l-.67-2.28a.983.983 0 0 0-.73-.69c-1.54-.36-3-.96-4.34-1.8-.31-.19-.69-.2-1.01-.03l-2.08 1.14c-.95-.77-1.82-1.64-2.59-2.59l1.14-2.08c.17-.32.16-.7-.03-1.01-.83-1.34-1.44-2.8-1.8-4.34a1 1 0 0 0-.69-.73l-2.28-.67c-.13-1.22-.13-2.44 0-3.66l2.28-.67c.35-.1.61-.38.69-.73.36-1.53.96-3 1.8-4.34.19-.31.2-.69.03-1.01l-1.14-2.08c.77-.95 1.64-1.82 2.59-2.59l2.08 1.14c.32.17.7.16 1.01-.03 1.34-.83 2.8-1.44 4.34-1.8a1 1 0 0 0 .73-.69l.67-2.28c1.22-.13 2.44-.13 3.66 0l.67 2.28c.1.35.38.61.73.69 1.54.36 3 .96 4.34 1.8.31.19.69.2 1.01.03l2.08-1.14c.95.77 1.82 1.64 2.59 2.59l-1.14 2.08c-.17.32-.16.7.03 1.01.83 1.34 1.44 2.8 1.8 4.34a1 1 0 0 0 .69.73l2.28.67c.11.97.13 1.94.07 2.91a.99.99 0 0 0 .93 1.06.99.99 0 0 0 1.06-.93c.08-1.32.03-2.65-.16-3.96-.06-.39-.33-.7-.71-.82l-2.36-.69c-.36-1.35-.9-2.65-1.6-3.86l1.18-2.15c.19-.34.16-.76-.07-1.08-1.1-1.48-2.41-2.79-3.89-3.89-.31-.23-.73-.26-1.08-.08l-2.15 1.18c-1.21-.7-2.51-1.24-3.86-1.6l-.69-2.36c-.11-.38-.43-.65-.82-.71-1.82-.27-3.68-.27-5.5 0-.39.06-.71.33-.82.71l-.69 2.36c-1.35.36-2.65.9-3.86 1.6l-2.15-1.18a.988.988 0 0 0-1.08.08c-1.48 1.1-2.79 2.41-3.89 3.89-.23.31-.26.74-.07 1.08l1.18 2.15c-.7 1.21-1.24 2.51-1.6 3.86l-2.36.69c-.38.11-.65.43-.71.82-.27 1.82-.27 3.68 0 5.5.06.39.33.71.71.82l2.36.69c.37 1.35.9 2.65 1.6 3.86l-1.18 2.15c-.19.34-.16.77.07 1.08 1.1 1.48 2.41 2.79 3.89 3.89.31.23.73.26 1.08.08l2.15-1.18c1.21.7 2.51 1.24 3.86 1.6l.69 2.36c.11.38.43.65.82.71 1.28.19 2.58.24 3.87.17.55-.03.97-.51.94-1.06-.03-.55-.51-.97-1.06-.94ZM31.49 24c4.14 0 7.5 3.36 7.5 7.5s-3.36 7.5-7.5 7.5-7.5-3.36-7.5-7.5 3.36-7.5 7.5-7.5Zm0 1a6.5 6.5 0 1 0 0 13 6.5 6.5 0 0 0 0-13Zm0 2c2.48 0 4.5 2.02 4.5 4.5s-2.02 4.5-4.5 4.5-4.5-2.02-4.5-4.5 2.02-4.5 4.5-4.5Zm.87-7.5A10.001 10.001 0 0 0 12.99 23c0 4.28 2.7 7.94 6.48 9.36.52.2 1.09-.07 1.29-.58a1.01 1.01 0 0 0-.58-1.29c-3.03-1.14-5.19-4.07-5.19-7.49 0-4.42 3.59-8 8-8 3.43 0 6.36 2.16 7.5 5.2a1.003 1.003 0 0 0 1.88-.7Z"></path></svg>