<svg class="border shadow-md" viewBox="0 0 702.24 702.24" xmlns="http://www.w3.org/2000/svg" preserveAspectRatio="none" style="width: 702.24px; height: 702.24px;"><rect class="bg" id="bg" x="0" y="0" width="702.24" height="702.24" fill="#ffffff"/><g transform="rotate(0 351.12 351.12)"><path id="-1" d="M -451.12 -40.22 S -290.00 -75.34&#10;            0.00 -40.22 215.56 -109.22&#10;            451.12 -40.22 649.24 -97.22&#10;            902.24 -40.22 1117.80 -99.22&#10;            1353.36 -40.22 h 110 V 902.24 H -451.12 Z" fill="#1BA4FF"/><path id="0" d="M -451.12 30.00 S -242.00 -5.11&#10;            0.00 30.00 48.12 -5.11&#10;            451.12 30.00 556.24 -27.00&#10;            902.24 30.00 939.36 -5.11&#10;            1353.36 30.00 h 110 V 902.24 H -451.12 Z" fill="#1c97f2"/><path id="1" d="M -451.12 100.22 S -235.56 34.22&#10;            0.00 100.22 215.56 58.22&#10;            451.12 100.22 510.24 65.11&#10;            902.24 100.22 1117.80 65.11&#10;            1353.36 100.22 h 110 V 902.24 H -451.12 Z" fill="#1d8ae5"/><path id="2" d="M -451.12 170.45 S -420.00 135.34&#10;            0.00 170.45 215.56 135.34&#10;            451.12 170.45 666.68 107.45&#10;            902.24 170.45 1117.80 124.45&#10;            1353.36 170.45 h 110 V 902.24 H -451.12 Z" fill="#1e7dd8"/><path id="3" d="M -451.12 240.67 S -235.56 205.56&#10;            0.00 240.67 215.56 205.56&#10;            451.12 240.67 510.24 174.67&#10;            902.24 240.67 1117.80 205.56&#10;            1353.36 240.67 h 110 V 902.24 H -451.12 Z" fill="#1f70cb"/><path id="4" d="M -451.12 310.90 S -275.00 275.78&#10;            0.00 310.90 215.56 275.78&#10;            451.12 310.90 666.68 275.78&#10;            902.24 310.90 1117.80 275.78&#10;            1353.36 310.90 h 110 V 902.24 H -451.12 Z" fill="#2063be"/><path id="5" d="M -451.12 381.12 S -322.00 328.12&#10;            0.00 381.12 189.12 316.12&#10;            451.12 381.12 526.24 346.01&#10;            902.24 381.12 1117.80 346.01&#10;            1353.36 381.12 h 110 V 902.24 H -451.12 Z" fill="#2156b1"/><path id="6" d="M -451.12 451.34 S -370.00 403.34&#10;            0.00 451.34 215.56 416.23&#10;            451.12 451.34 644.24 416.23&#10;            902.24 451.34 1078.36 409.34&#10;            1353.36 451.34 h 110 V 902.24 H -451.12 Z" fill="#2249a4"/><path id="7" d="M -451.12 521.57 S -235.56 475.57&#10;            0.00 521.57 186.12 486.46&#10;            451.12 521.57 629.24 464.57&#10;            902.24 521.57 1117.80 482.57&#10;            1353.36 521.57 h 110 V 902.24 H -451.12 Z" fill="#233c97"/><path id="8" d="M -451.12 591.79 S -391.00 556.68&#10;            0.00 591.79 193.12 556.68&#10;            451.12 591.79 666.68 555.79&#10;            902.24 591.79 1117.80 552.79&#10;            1353.36 591.79 h 110 V 902.24 H -451.12 Z" fill="#242f8a"/><path id="9" d="M -451.12 662.02 S -235.56 626.90&#10;            0.00 662.02 60.12 626.90&#10;            451.12 662.02 613.24 626.90&#10;            902.24 662.02 944.36 604.02&#10;            1353.36 662.02 h 110 V 902.24 H -451.12 Z" fill="#25227d"/></g></svg>